<?xml version="1.0" encoding="utf-8"?>
<!-- Generator: Adobe Illustrator 16.0.0, SVG Export Plug-In . SVG Version: 6.00 Build 0)  -->
<!DOCTYPE svg PUBLIC "-//W3C//DTD SVG 1.1//EN" "http://www.w3.org/Graphics/SVG/1.1/DTD/svg11.dtd">
<svg version="1.1" id="Layer_1" xmlns="http://www.w3.org/2000/svg" xmlns:xlink="http://www.w3.org/1999/xlink" x="0px" y="0px"
	 width="86.24px" height="53.91px" viewBox="0 0 86.24 53.91" enable-background="new 0 0 86.24 53.91" xml:space="preserve">
<path fill="#FBB585" stroke="#FFFFFF" stroke-miterlimit="10" d="M85.74,44.17c0,5.8-21.61,9.6-42.62,9.21l0,0
	C22.11,53.77,0.5,49.97,0.5,44.17C0.5,33.02,4.65,0.94,42.95,0.5h0.34C81.59,0.94,85.74,33.02,85.74,44.17z"/>
<ellipse transform="matrix(0.8543 0.5198 -0.5198 0.8543 8.8774 -9.369)" fill="#FFDE9C" stroke="#FFFFFF" stroke-miterlimit="10" cx="21.15" cy="11.15" rx="1.01" ry="2.35"/>
<ellipse transform="matrix(0.9339 0.3574 -0.3574 0.9339 8.3888 -7.8054)" fill="#FFDE9C" stroke="#FFFFFF" stroke-miterlimit="10" cx="25.31" cy="18.79" rx="1.01" ry="2.35"/>
<ellipse transform="matrix(0.944 -0.33 0.33 0.944 0.3111 19.9843)" fill="#FFDE9C" stroke="#FFFFFF" stroke-miterlimit="10" cx="59.02" cy="9.08" rx="1.01" ry="2.35"/>
<ellipse transform="matrix(0.9863 -0.1647 0.1647 0.9863 -2.8486 9.5484)" fill="#FFDE9C" stroke="#FFFFFF" stroke-miterlimit="10" cx="56.15" cy="21.95" rx="1.01" ry="2.35"/>
<path fill="#FFDE9C" stroke="#FFFFFF" stroke-miterlimit="10" d="M35.03,9.99c-0.37,1.24-1.1,2.12-1.63,1.96
	c-0.54-0.16-0.67-1.3-0.3-2.54c0.37-1.24,1.1-2.12,1.63-1.96C35.26,7.61,35.4,8.75,35.03,9.99z"/>
<ellipse transform="matrix(0.9863 -0.1647 0.1647 0.9863 -1.9563 7.4892)" fill="#FFDE9C" stroke="#FFFFFF" stroke-miterlimit="10" cx="44.19" cy="15.54" rx="1.01" ry="2.35"/>
<ellipse transform="matrix(0.944 -0.33 0.33 0.944 0.4062 16.0643)" fill="#FFDE9C" stroke="#FFFFFF" stroke-miterlimit="10" cx="47.52" cy="6.84" rx="1.01" ry="2.35"/>
</svg>
