<?xml version="1.0" encoding="utf-8"?>
<!-- Generator: Adobe Illustrator 16.0.0, SVG Export Plug-In . SVG Version: 6.00 Build 0)  -->
<!DOCTYPE svg PUBLIC "-//W3C//DTD SVG 1.1//EN" "http://www.w3.org/Graphics/SVG/1.1/DTD/svg11.dtd">
<svg version="1.1" id="Layer_1" xmlns="http://www.w3.org/2000/svg" xmlns:xlink="http://www.w3.org/1999/xlink" x="0px" y="0px"
	 width="73.13px" height="82.68px" viewBox="0 0 73.13 82.68" enable-background="new 0 0 73.13 82.68" xml:space="preserve">
<image overflow="visible" width="305" height="318" xlink:href="5F7F8F27.png"  transform="matrix(0.24 0 0 0.24 0 6.5981)">
</image>
<polygon fill="#A8C066" stroke="#FFFFFF" stroke-miterlimit="10" points="33.63,4.68 28.37,1.57 31.96,6.84 26.93,8.15 33.63,9.59 
	33.63,11.63 36.63,10.07 39.86,11.63 39.86,9.11 46.2,7.44 39.98,6.6 43.57,1.57 36.57,4.8 32.8,1.57 "/>
<path fill="none" stroke="#EBB5D3" stroke-width="2" stroke-miterlimit="10" d="M31.82,21.36c0,0-12.13,7.13-12.5,24.37
	c-0.38,17.25,7.22,27.01,9.25,31.63"/>
<path fill="none" stroke="#EBB5D3" stroke-width="2" stroke-miterlimit="10" d="M41.49,21.36c0,0,12.13,7.13,12.5,24.37
	c0.38,17.25-7.22,27.01-9.25,31.63"/>
<path fill="none" stroke="#EBB5D3" stroke-width="2" stroke-miterlimit="10" d="M19.31,27.74c0,0-28.58,16.77,3.39,47.25"/>
<path fill="none" stroke="#EBB5D3" stroke-width="2" stroke-miterlimit="10" d="M54,27.74c0,0,28.58,16.77-3.39,47.25"/>
</svg>
