<?xml version="1.0" encoding="utf-8"?>
<!-- Generator: Adobe Illustrator 16.0.0, SVG Export Plug-In . SVG Version: 6.00 Build 0)  -->
<!DOCTYPE svg PUBLIC "-//W3C//DTD SVG 1.1//EN" "http://www.w3.org/Graphics/SVG/1.1/DTD/svg11.dtd">
<svg version="1.1" id="Layer_1" xmlns="http://www.w3.org/2000/svg" xmlns:xlink="http://www.w3.org/1999/xlink" x="0px" y="0px"
	 width="50.46px" height="50.31px" viewBox="0 0 50.46 50.31" enable-background="new 0 0 50.46 50.31" xml:space="preserve">
<g>
	<path fill="#89C86C" d="M9.93,42.85c-2.97-0.72-5.76-3.41-6.2-5.96S2.06,29.97,1,27.19s-0.39-6.84,1.5-9.03s4.1-6.14,4.93-8.78
		s4.01-5.2,7.06-5.7s7.42-1.72,9.7-2.72s5.93-0.29,8.12,1.59s6.14,4.1,8.78,4.93s5.12,3.61,5.51,6.18s1.62,6.93,2.72,9.69
		s0.73,6.69-0.84,8.73s-3.79,5.99-4.93,8.78s-4.2,5.32-6.8,5.62s-6.96,1.52-9.7,2.73c-2.73,1.2-6.49,0.56-8.35-1.43
		S12.9,43.57,9.93,42.85z"/>
	<path fill="none" stroke="#FFFFFF" stroke-miterlimit="10" d="M9.93,42.85c-2.97-0.72-5.76-3.41-6.2-5.96S2.06,29.97,1,27.19
		s-0.39-6.84,1.5-9.03s4.1-6.14,4.93-8.78s4.01-5.2,7.06-5.7s7.42-1.72,9.7-2.72s5.93-0.29,8.12,1.59s6.14,4.1,8.78,4.93
		s5.12,3.61,5.51,6.18s1.62,6.93,2.72,9.69s0.73,6.69-0.84,8.73s-3.79,5.99-4.93,8.78s-4.2,5.32-6.8,5.62s-6.96,1.52-9.7,2.73
		c-2.73,1.2-6.49,0.56-8.35-1.43S12.9,43.57,9.93,42.85z"/>
</g>
</svg>
