<?xml version="1.0" encoding="utf-8"?>
<!-- Generator: Adobe Illustrator 16.0.0, SVG Export Plug-In . SVG Version: 6.00 Build 0)  -->
<!DOCTYPE svg PUBLIC "-//W3C//DTD SVG 1.1//EN" "http://www.w3.org/Graphics/SVG/1.1/DTD/svg11.dtd">
<svg version="1.1" id="Layer_1" xmlns="http://www.w3.org/2000/svg" xmlns:xlink="http://www.w3.org/1999/xlink" x="0px" y="0px"
	 width="69.13px" height="67.8px" viewBox="0 0 69.13 67.8" enable-background="new 0 0 69.13 67.8" xml:space="preserve">
<g>
	<path fill="#89C86C" d="M50.4,44.91c-2.21,1.84-5.81,2.44-7.98,1.34s-6.16-2.62-8.86-3.38s-5.39-3.55-5.99-6.2
		s-2.34-6.54-3.87-8.65c-1.53-2.11-1.69-5.95-0.34-8.53c1.34-2.58,2.86-6.57,3.38-8.85s3.11-4.65,5.76-5.24s6.54-2.34,8.65-3.87
		c2.11-1.53,5.6-1.85,7.76-0.7s6.15,2.67,8.86,3.38s5.47,3.2,6.13,5.53c0.66,2.33,2.4,6.22,3.87,8.65s1.66,6.16,0.43,8.29
		c-1.23,2.13-2.75,6.12-3.38,8.86s-3.22,5.22-5.76,5.51S52.61,43.07,50.4,44.91z"/>
	<path fill="none" stroke="#7BBC5B" stroke-width="0.25" stroke-miterlimit="10" d="M50.4,44.91c-2.21,1.84-5.81,2.44-7.98,1.34
		s-6.16-2.62-8.86-3.38s-5.39-3.55-5.99-6.2s-2.34-6.54-3.87-8.65c-1.53-2.11-1.69-5.95-0.34-8.53c1.34-2.58,2.86-6.57,3.38-8.85
		s3.11-4.65,5.76-5.24s6.54-2.34,8.65-3.87c2.11-1.53,5.6-1.85,7.76-0.7s6.15,2.67,8.86,3.38s5.47,3.2,6.13,5.53
		c0.66,2.33,2.4,6.22,3.87,8.65s1.66,6.16,0.43,8.29c-1.23,2.13-2.75,6.12-3.38,8.86s-3.22,5.22-5.76,5.51S52.61,43.07,50.4,44.91z"
		/>
</g>
<g>
	<g>
		<path fill="#7BBC5B" d="M37.02,25.6c1.71-3.77,3.36-7.56,5.07-11.32c1.32-2.91-2.99-5.46-4.32-2.52
			c-1.71,3.77-3.36,7.56-5.07,11.32C31.38,25.99,35.69,28.53,37.02,25.6L37.02,25.6z"/>
	</g>
</g>
<g>
	<g>
		<path fill="#7BBC5B" d="M41.58,35.57c4.01-7.45,6.44-15.63,10.65-22.99c1.6-2.8-2.72-5.32-4.32-2.52
			c-4.21,7.36-6.64,15.53-10.65,22.99C35.74,35.88,40.05,38.41,41.58,35.57L41.58,35.57z"/>
	</g>
</g>
<g>
	<g>
		<path fill="#7BBC5B" d="M53.24,32.36c1.71-3.77,3.36-7.56,5.07-11.33c1.32-2.91-2.99-5.46-4.32-2.52
			c-1.71,3.77-3.36,7.56-5.07,11.33C47.61,32.75,51.91,35.29,53.24,32.36L53.24,32.36z"/>
	</g>
</g>
<ellipse transform="matrix(0.9571 0.2897 -0.2897 0.9571 8.1315 -14.0438)" fill="#DDDA70" stroke="#FFFFFF" stroke-miterlimit="10" cx="51.51" cy="20.45" rx="2.11" ry="4.9"/>
<ellipse transform="matrix(0.9994 -0.036 0.036 0.9994 -0.5097 1.6518)" fill="#DDDA70" stroke="#FFFFFF" stroke-miterlimit="10" cx="45.56" cy="14.97" rx="2.11" ry="4.9"/>
<ellipse transform="matrix(0.9545 -0.2981 0.2981 0.9545 -4.3072 12.6582)" fill="#DDDA70" stroke="#FFFFFF" stroke-miterlimit="10" cx="39.34" cy="20.45" rx="2.11" ry="4.9"/>
<g>
	<path fill="#89C86C" d="M28.45,65.41c-2.21,1.84-5.81,2.44-7.98,1.34c-2.18-1.1-6.16-2.62-8.85-3.38s-5.39-3.55-5.99-6.2
		s-2.34-6.54-3.87-8.65c-1.53-2.11-1.69-5.95-0.34-8.53c1.34-2.58,2.86-6.57,3.38-8.85s3.11-4.65,5.76-5.24s6.54-2.34,8.65-3.87
		c2.11-1.53,5.6-1.85,7.76-0.7c2.16,1.15,6.15,2.67,8.85,3.38c2.71,0.71,5.47,3.2,6.13,5.53c0.66,2.33,2.4,6.22,3.87,8.65
		s1.66,6.16,0.43,8.29c-1.23,2.13-2.75,6.12-3.38,8.86s-3.22,5.22-5.76,5.51C34.56,61.83,30.67,63.57,28.45,65.41z"/>
	<path fill="none" stroke="#FFFFFF" stroke-miterlimit="10" d="M28.45,65.41c-2.21,1.84-5.81,2.44-7.98,1.34
		c-2.18-1.1-6.16-2.62-8.85-3.38s-5.39-3.55-5.99-6.2s-2.34-6.54-3.87-8.65c-1.53-2.11-1.69-5.95-0.34-8.53
		c1.34-2.58,2.86-6.57,3.38-8.85s3.11-4.65,5.76-5.24s6.54-2.34,8.65-3.87c2.11-1.53,5.6-1.85,7.76-0.7
		c2.16,1.15,6.15,2.67,8.85,3.38c2.71,0.71,5.47,3.2,6.13,5.53c0.66,2.33,2.4,6.22,3.87,8.65s1.66,6.16,0.43,8.29
		c-1.23,2.13-2.75,6.12-3.38,8.86s-3.22,5.22-5.76,5.51C34.56,61.83,30.67,63.57,28.45,65.41z"/>
</g>
<g>
	<g>
		<path fill="#7BBC5B" d="M14.02,47.6c1.71-3.77,3.36-7.56,5.07-11.32c1.32-2.91-2.99-5.46-4.32-2.52
			c-1.71,3.77-3.36,7.56-5.07,11.32C8.38,47.99,12.69,50.53,14.02,47.6L14.02,47.6z"/>
	</g>
</g>
<g>
	<g>
		<path fill="#7BBC5B" d="M18.58,57.57c4.01-7.45,6.44-15.63,10.65-22.99c1.6-2.8-2.72-5.32-4.32-2.52
			c-4.21,7.36-6.64,15.53-10.65,22.99C12.74,57.88,17.05,60.41,18.58,57.57L18.58,57.57z"/>
	</g>
</g>
<g>
	<g>
		<path fill="#7BBC5B" d="M30.24,54.36c1.71-3.77,3.36-7.56,5.07-11.33c1.32-2.91-2.99-5.46-4.32-2.52
			c-1.71,3.77-3.36,7.56-5.07,11.33C24.61,54.75,28.91,57.29,30.24,54.36L30.24,54.36z"/>
	</g>
</g>
<ellipse transform="matrix(0.9571 0.2896 -0.2896 0.9571 13.1258 -6.8069)" fill="#DDDA70" stroke="#FFFFFF" stroke-miterlimit="10" cx="29.56" cy="40.95" rx="2.11" ry="4.9"/>
<ellipse transform="matrix(0.9994 -0.0361 0.0361 0.9994 -1.2632 0.8745)" fill="#DDDA70" stroke="#FFFFFF" stroke-miterlimit="10" cx="23.62" cy="35.47" rx="2.11" ry="4.9"/>
<ellipse transform="matrix(0.9545 -0.2982 0.2982 0.9545 -11.4183 7.0491)" fill="#DDDA70" stroke="#FFFFFF" stroke-miterlimit="10" cx="17.39" cy="40.95" rx="2.11" ry="4.9"/>
</svg>
